<svg xmlns="http://www.w3.org/2000/svg" width="920" height="470" viewBox="0 0 920 470" role="img">
<rect width="100%" height="100%" fill="#fff"/>
<style>
.title{font:700 23px -apple-system,BlinkMacSystemFont,"Segoe UI",sans-serif;fill:#111827;text-anchor:middle}
.txt{font:15px -apple-system,BlinkMacSystemFont,"Segoe UI",sans-serif;fill:#374151}
.tick{font:14px -apple-system,BlinkMacSystemFont,"Segoe UI",sans-serif;fill:#374151;text-anchor:middle}
.label{font:14px -apple-system,BlinkMacSystemFont,"Segoe UI",sans-serif;fill:#111827;text-anchor:middle}
</style>
<text x="460" y="38" class="title">Remote Model A sanity run: balanced occupation, non-tight-looking range</text>
<text x="265.0" y="68" class="txt" text-anchor="middle">occupation error at t=10^7</text>
<line x1="75" y1="231.0" x2="455" y2="231.0" stroke="#111827" stroke-width="1"/>
<line x1="75" y1="86" x2="75" y2="376" stroke="#111827" stroke-width="1.5"/>
<rect x="95.5" y="129.0" width="14" height="102.0" fill="#2f80c0"/><rect x="113.5" y="192.5" width="14" height="38.5" fill="#7cc6a5"/><rect x="131.5" y="231.0" width="14" height="140.5" fill="#f4a261"/><text x="122.5" y="403" class="tick">seed 0</text>
<rect x="190.5" y="129.0" width="14" height="102.0" fill="#2f80c0"/><rect x="208.5" y="163.7" width="14" height="67.3" fill="#7cc6a5"/><rect x="226.5" y="231.0" width="14" height="169.3" fill="#f4a261"/><text x="217.5" y="403" class="tick">seed 1</text>
<rect x="285.5" y="169.4" width="14" height="61.6" fill="#2f80c0"/><rect x="303.5" y="231.0" width="14" height="48.1" fill="#7cc6a5"/><rect x="321.5" y="231.0" width="14" height="13.5" fill="#f4a261"/><text x="312.5" y="403" class="tick">seed 2</text>
<rect x="380.5" y="111.7" width="14" height="119.3" fill="#2f80c0"/><rect x="398.5" y="231.0" width="14" height="59.7" fill="#7cc6a5"/><rect x="416.5" y="231.0" width="14" height="59.7" fill="#f4a261"/><text x="407.5" y="403" class="tick">seed 3</text>
<text x="31" y="236.0" class="txt">0</text>
<text x="265.0" y="434" class="txt" text-anchor="middle">bars: (rho_i - 1/3) x 10^4, nodes 0/1/2</text>
<text x="700.0" y="68" class="txt" text-anchor="middle">M(t)/sqrt(t) at t=10^7</text>
<line x1="540" y1="376" x2="860" y2="376" stroke="#111827" stroke-width="1.5"/>
<line x1="540" y1="86" x2="540" y2="376" stroke="#111827" stroke-width="1.5"/>
<rect x="557.0" y="199.1" width="46" height="176.9" fill="#b56576" stroke="#6d213c" stroke-width="2"/><text x="580.0" y="191.1" class="label">0.026</text>
<text x="580.0" y="403" class="tick">seed 0</text>
<rect x="637.0" y="137.8" width="46" height="238.2" fill="#b56576" stroke="#6d213c" stroke-width="2"/><text x="660.0" y="129.8" class="label">0.036</text>
<text x="660.0" y="403" class="tick">seed 1</text>
<rect x="717.0" y="331.5" width="46" height="44.5" fill="#b56576" stroke="#6d213c" stroke-width="2"/><text x="740.0" y="323.5" class="label">0.007</text>
<text x="740.0" y="403" class="tick">seed 2</text>
<rect x="797.0" y="295.0" width="46" height="81.0" fill="#b56576" stroke="#6d213c" stroke-width="2"/><text x="820.0" y="287.0" class="label">0.012</text>
<text x="820.0" y="403" class="tick">seed 3</text>
<line x1="540" y1="242.0" x2="860" y2="242.0" stroke="#e5e7eb"/>
<text x="528" y="247.0" text-anchor="end" class="txt">0.02</text>
<line x1="540" y1="108.0" x2="860" y2="108.0" stroke="#e5e7eb"/>
<text x="528" y="113.0" text-anchor="end" class="txt">0.04</text>
</svg>
